# AST/ASF file generated using VICON BodyLanguage
# -----------------------------------------------
:version 1.10
:name VICON
:units
  mass 1.0
  length 0.45
  angle deg
:documentation
   .ast/.asf automatically generated from VICON data using
   VICON BodyBuilder and BodyLanguage model FoxedUp or BRILLIANT.MOD
:root
   order TX TY TZ RX RY RZ
   axis XYZ
   position 0 0 0  
   orientation 0 0 0 
:bonedata
  begin
     id 1 
     name lhipjoint
     direction 0.567725 -0.736092 0.368589 
     length 2.42353 
     axis 0 0 0  XYZ
  end
  begin
     id 2 
     name lfemur
     direction 0.34202 -0.939693 0  
     length 7.24894  
     axis 0 0 20  XYZ
    dof rx ry rz
    limits (-160.0 20.0)
           (-70.0 70.0)
           (-60.0 70.0)
  end
  begin
     id 3 
     name ltibia
     direction 0.34202 -0.939693 0   
     length 7.6997   
     axis 0 0 20   XYZ
    dof rx
    limits (-10.0 170.0)
  end
  begin
     id 4 
     name lfoot
     direction 0.100767 -0.276854 0.955614   
     length 2.37556   
     axis -90 7.62852e-016 20   XYZ
    dof rx rz
    limits (-45.0 90.0)
           (-70.0 20.0)
  end
  begin
     id 5 
     name ltoes
     direction 1.53592e-011 -4.21894e-011 1   
     length 1.18363   
     axis -90 7.62852e-016 20   XYZ
    dof rx
    limits (-90.0 20.0)
  end
  begin
     id 6 
     name rhipjoint
     direction -0.556459 -0.742938 0.372017   
     length 2.4012  
     axis 0 0 0  XYZ 
  end
  begin
     id 7 
     name rfemur
     direction -0.34202 -0.939693 0   
     length 7.5119   
     axis 0 0 -20   XYZ
    dof rx ry rz
    limits (-160.0 20.0)
           (-70.0 70.0)
           (-70.0 60.0)
  end
  begin
     id 8 
     name rtibia
     direction -0.34202 -0.939693 0   
     length 7.50155   
     axis 0 0 -20   XYZ
    dof rx
    limits (-10.0 170.0)
 end
 begin
     id 9 
     name rfoot
     direction -0.118427 -0.325376 0.938139   
     length 2.32487  
     axis -90 -7.62852e-016 -20   XYZ
    dof rx rz
    limits (-45.0 90.0)
           (-20.0 70.0)
  end
  begin
     id 10 
     name rtoes
     direction -1.53525e-011 -4.21868e-011 1   
     length 1.15233   
     axis -90 -7.62852e-016 -20   XYZ
    dof rx
    limits (-90.0 20.0)
  end
  begin
     id 11 
     name lowerback
     direction 0.0287568 0.999577 -0.00434502   
     length 2.15243   
     axis 0 0 0   XYZ
    dof rx ry rz
    limits (-20.0 45.0)
           (-30.0 30.0)
           (-30.0 30.0)
  end
  begin
     id 12 
     name upperback
     direction 0.0294009 0.99956 0.00404628   
     length 2.15427   
     axis 0 0 0   XYZ
    dof rx ry rz
    limits (-20.0 45.0)
           (-30.0 30.0)
           (-30.0 30.0)
  end
  begin
     id 13 
     name thorax
     direction 0.0151014 0.999868 0.0059419   
     length 2.14898   
     axis 0 0 0   XYZ
    dof rx ry rz
    limits (-20.0 45.0)
           (-30.0 30.0)
           (-30.0 30.0)
  end
  begin
     id 14 
     name lowerneck
     direction -0.0249197 0.989906 0.139515   
     length 1.6861   
     axis 0 0 0   XYZ
    dof rx ry rz
    limits (-20.0 45.0)
           (-30.0 30.0)
           (-30.0 30.0)
  end
  begin
     id 15 
     name upperneck
     direction 0.0438463 0.988795 -0.142693   
     length 1.71276   
     axis 0 0 0   XYZ
    dof rx ry rz
    limits (-20.0 45.0)
           (-30.0 30.0)
           (-30.0 30.0)
  end
  begin
     id 16
     name head
     direction 0.0148499 0.997845 -0.0639186  
     length 1.7209  
     axis 0 0 0   XYZ
    dof rx ry rz
    limits (-20.0 45.0)
           (-30.0 30.0)
           (-30.0 30.0)
  end
  begin
     id 17 
     name lclavicle
     direction 0.940298 0.323464 -0.105876  
     length 3.9048  
     axis 0 0 0   XYZ
    dof ry rz
    limits (-20.0 10.0)
           (0.0 20.0)
  end
  begin
     id 18 
     name lhumerus
     direction 1 -4.48954e-011 -4.9675e-028   
     length 4.6851   
     axis 180 -30 -90   XYZ
    dof rx ry rz
    limits (-60.0 90.0)
           (-90.0 90.0)
           (-90.0 90.0)
  end
  begin
     id 19
     name lradius
     direction 1 -4.48992e-011 -1.03359e-026   
     length 3.39626   
     axis 180 -30 -90   XYZ
    dof rx
    limits (-10.0 170.0)
  end
  begin
     id 20
     name lwrist
     direction 1 -4.48906e-011 -1.67336e-026   
     length 1.69813   
     axis 9.90442e-015 90 90   XYZ
    dof ry
    limits (-180.0 0.0)
 end
  begin
     id 21 
     name lhand
     direction 1 -4.49006e-011 -3.34673e-026   
     length 0.486078   
     axis 2.1355e-014 90 90   XYZ
    dof rx rz
    limits (-90.0 90.0)
           (-45.0 45.0)
  end
  begin
     id 22 
     name lfingers
     direction 1 -4.48992e-011 -6.69345e-026   
     length 0.391889   
     axis 4.27099e-014 90 90   XYZ
    dof rx
    limits (0.0 90.0)
  end
  begin
     id 23
     name lthumb
     direction 0.707107 -6.34926e-011 0.707107   
     length 0.562676   
     axis -90 45 2.85299e-015   XYZ
    dof rx rz
    limits (-45.0 45.0)
           (-45.0 45.0)
  end
  begin
     id 24 
     name rclavicle
     direction -0.882459 0.414895 -0.221648   
     length 3.44646  
     axis 0 0 0   XYZ 
    dof ry rz
    limits (-10.0 20.0)
           (-20.0 0.0)
  end
  begin
     id 25 
     name rhumerus
     direction -1 -4.48962e-011 -2.37984e-027  
     length 5.55576   
     axis 180 30 90   XYZ
    dof rx ry rz
    limits (-90.0 60.0)
           (-90.0 90.0)
           (-90.0 90.0)
  end
  begin
     id 26 
     name rradius
     direction -1 -4.48982e-011 -6.86791e-027   
     length 3.32774   
     axis 180 30 90   XYZ
    dof rx
    limits (-10.0 170.0)
  end
  begin
     id 27 
     name rwrist
     direction -1 -4.48961e-011 -1.67336e-026   
     length 1.66387   
     axis 9.90442e-015 -90 -90   XYZ
    dof ry
    limits (-180.0 0.0)
  end
  begin
     id 28
     name rhand
     direction -1 -4.4897e-011 -3.34673e-026   
     length 0.507628   
     axis 2.1355e-014 -90 -90   XYZ
    dof rx rz
    limits (-90.0 90.0)
           (-45.0 45.0)
  end
  begin
     id 29
     name rfingers
     direction -1 -4.48854e-011 -6.69345e-026   
     length 0.409263   
     axis 4.27099e-014 -90 -90   XYZ
    dof rx
    limits (0.0 90.0)
  end
  begin
     id 30
     name rthumb
     direction -0.707107 -6.34913e-011 0.707107   
     length 0.587622   
     axis -90 -45 -2.85299e-015   XYZ
    dof rx rz
    limits (-45.0 45.0)
           (-45.0 45.0)
  end
:hierarchy
  begin
    root lhipjoint rhipjoint lowerback
    lhipjoint lfemur
    lfemur ltibia
    ltibia lfoot
    lfoot ltoes
    rhipjoint rfemur
    rfemur rtibia
    rtibia rfoot
    rfoot rtoes
    lowerback upperback
    upperback thorax
    thorax lowerneck lclavicle rclavicle
    lowerneck upperneck
    upperneck head
    lclavicle lhumerus
    lhumerus lradius
    lradius lwrist
    lwrist lhand lthumb
    lhand lfingers
    rclavicle rhumerus
    rhumerus rradius
    rradius rwrist
    rwrist rhand rthumb
    rhand rfingers
  end

#!OML:ASF E:\motion texture\Top Level 1\Subject 1\Session 1\male.ASF
:FULLY-SPECIFIED
:DEGREES
1
root 33.5412 17.6849 6.58892 78.391 -88.6139 -73.2042
lowerback 0.325687 0.710587 -0.462251
upperback -2.09921 0.925469 -0.0689848
thorax -2.33996 0.464368 0.166581
lowerneck -13.0912 -3.63451 -7.11884
upperneck 11.5055 -4.01212 3.14227
head 5.83567 -2.036 1.78934
rclavicle 4.69008e-015 -3.97569e-015
rhumerus 12.4385 2.18124 -69.022
rradius 78.1067
rwrist -19.1019
rhand -10.7612 -28.2912
rfingers 7.12502
rthumb 15.2505 -57.7091
lclavicle 4.69008e-015 -3.97569e-015
lhumerus 10.224 -8.26502 81.9301
lradius 63.8377
lwrist 16.0493
lhand -16.0428 28.4538
lfingers 7.12502
lthumb 10.1589 58.1885
rfemur -32.3751 -10.4958 19.8188
rtibia 56.3842
rfoot -8.17962 -18.6728
rtoes 3.5124
lfemur -7.37765 -7.25106 -19.6072
ltibia 16.2932
lfoot -10.6892 1.02048
ltoes -6.32614
2
root 33.4356 17.6803 6.59192 79.1428 -88.5928 -73.9025
lowerback -0.247234 0.665536 -0.298336
upperback -1.90837 0.872115 -0.0148613
thorax -1.81984 0.434865 0.14031
lowerneck -12.2121 -3.53745 -6.87314
upperneck 10.9075 -3.95565 2.94016
head 5.48802 -2.01489 1.70525
rclavicle 5.95733e-015 -3.57812e-015
rhumerus 12.9978 1.89439 -68.7298
rradius 78.473
rwrist -18.4237
rhand -11.4689 -27.5992
rfingers 7.12502
rthumb 14.5688 -57.0675
lclavicle 5.95733e-015 -3.57812e-015
lhumerus 9.69513 -8.43425 82.2582
lradius 63.5717
lwrist 15.9188
lhand -16.333 29.7098
lfingers 7.12502
lthumb 9.87891 59.4581
rfemur -32.9273 -10.5682 19.8166
rtibia 54.7033
rfoot -8.56081 -18.917
rtoes 4.04132
lfemur -7.02989 -7.22658 -19.6439
ltibia 16.282
lfoot -10.9812 1.09724
ltoes -6.41699
3
root 33.329 17.6762 6.59484 76.2677 -88.5854 -70.9785
lowerback 0.510383 0.59434 -0.175976
upperback -2.55738 0.76982 0.0214328
thorax -2.9121 0.379866 0.0976118
lowerneck -11.1481 -3.37029 -6.69475
upperneck 10.9995 -3.82235 2.75249
head 5.32502 -1.96886 1.64326
rclavicle -5.83775e-015 4.37326e-015
rhumerus 12.3523 1.95897 -68.5032
rradius 79.0259
rwrist -17.8708
rhand -11.2593 -27.0581
rfingers 7.12502
rthumb 14.7707 -56.5118
lclavicle -5.83775e-015 4.37326e-015
lhumerus 7.90005 -8.65751 82.7638
lradius 63.5557
lwrist 15.4548
lhand -16.3814 30.7998
lfingers 7.12502
lthumb 9.8322 60.5503
rfemur -33.3627 -10.6849 19.7387
rtibia 52.8462
rfoot -8.74426 -19.0728
rtoes 4.27775
lfemur -6.6979 -7.3898 -19.7524
ltibia 16.3154
lfoot -11.306 1.27776
ltoes -6.57975
4
root 33.2227 17.6703 6.59275 75.3925 -88.5755 -70.0023
lowerback -0.0213022 0.51527 -0.129023
upperback -1.99076 0.674082 0.0991678
thorax -2.02975 0.334119 0.162275
lowerneck -12.0942 -3.37738 -6.56419
upperneck 10.8979 -3.77642 2.73712
head 5.44622 -1.93033 1.60904
rclavicle -1.89467e-016 6.16232e-015
rhumerus 13.5549 1.56617 -68.1655
rradius 79.2273
rwrist -17.6225
rhand -11.7792 -26.8666
rfingers 7.12502
rthumb 14.2697 -56.3564
lclavicle -1.89467e-016 6.16232e-015
lhumerus 8.30315 -8.60346 82.9179
lradius 63.5688
lwrist 14.9468
lhand -16.768 31.681
lfingers 7.12502
lthumb 9.45923 61.4487
rfemur -33.6924 -10.6392 19.6693
rtibia 50.6462
rfoot -8.56877 -19.1632
rtoes 4.40685
lfemur -6.37744 -7.39385 -19.7875
ltibia 16.259
lfoot -11.6073 1.31907
ltoes -6.61249
5
root 33.1163 17.6646 6.59184 74.2083 -88.5762 -68.7229
lowerback -0.100098 0.444138 -0.0589262
upperback -1.91611 0.581417 0.151095
thorax -1.90827 0.287306 0.178845
lowerneck -12.106 -3.31338 -6.40535
upperneck 10.8198 -3.70452 2.65371
head 5.41555 -1.89345 1.56367
rclavicle -4.65902e-017 -2.5842e-015
rhumerus 13.9449 1.3991 -67.883
rradius 79.5405
rwrist -17.2559
rhand -12.0682 -26.5303
rfingers 7.12502
rthumb 13.9913 -56.0395
lclavicle -4.65902e-017 -2.5842e-015
lhumerus 7.84044 -8.64021 83.2134
lradius 63.6158
lwrist 14.5321
lhand -16.8619 32.535
lfingers 7.12502
lthumb 9.36863 62.3068
rfemur -34.0496 -10.6115 19.5824
rtibia 48.5226
rfoot -8.4625 -19.1998
rtoes 4.66596
lfemur -6.06535 -7.45688 -19.8575
ltibia 16.2332
lfoot -11.9091 1.42872
ltoes -6.71577
6
root 33.0094 17.6583 6.58957 73.1219 -88.5888 -67.5277
lowerback -0.10406 0.376028 -0.0153479
upperback -1.87256 0.492129 0.199392
thorax -1.86105 0.242565 0.2055
lowerneck -12.2196 -3.25938 -6.2639
upperneck 10.8203 -3.64071 2.59608
head 5.42785 -1.85942 1.52688
rclavicle -2.03444e-015 -4.47266e-015
rhumerus 14.2392 1.29026 -67.5942
rradius 79.8245
rwrist -16.9424
rhand -12.3233 -26.272
rfingers 7.12502
rthumb 13.7454 -55.798
lclavicle -2.03444e-015 -4.47266e-015
lhumerus 7.40989 -8.64288 83.5117
lradius 63.7493
lwrist 14.1403
lhand -16.9164 33.192
lfingers 7.12502
lthumb 9.31597 62.9662
rfemur -34.3472 -10.5163 19.4648
rtibia 46.265
rfoot -8.19444 -19.1595
rtoes 4.95255
lfemur -5.75643 -7.52191 -19.935
ltibia 16.1901
lfoot -12.2059 1.54483
ltoes -6.80503
7
root 32.9022 17.6514 6.58588 72.1317 -88.6149 -66.4124
lowerback -0.100814 0.314461 -0.00115085
upperback -1.8475 0.411023 0.245064
thorax -1.83707 0.202282 0.245621
lowerneck -12.3214 -3.21313 -6.13703
upperneck 10.8307 -3.58848 2.55613
head 5.44252 -1.83064 1.49714
rclavicle -1.14922e-015 2.18663e-015
rhumerus 14.4255 1.24586 -67.2851
rradius 80.0718
rwrist -16.6665
rhand -12.6096 -26.0643
rfingers 7.12502
rthumb 13.4695 -55.6088
lclavicle -1.14922e-015 2.18663e-015
lhumerus 7.02449 -8.62393 83.8156
lradius 63.9573
lwrist 13.8339
lhand -16.8919 33.6326
lfingers 7.12502
lthumb 9.33962 63.4057
rfemur -34.5888 -10.3444 19.3119
rtibia 43.8805
rfoot -7.73086 -19.0368
rtoes 5.21278
lfemur -5.45116 -7.57495 -20.0182
ltibia 16.1245
lfoot -12.4955 1.65442
ltoes -6.8731
8
root 32.7943 17.6438 6.58081 71.1832 -88.6547 -65.3249
lowerback 0.0188137 0.261086 -0.0161221
upperback -1.91861 0.340035 0.288995
thorax -1.97734 0.167266 0.29935
lowerneck -12.3588 -3.17025 -6.02525
upperneck 10.9037 -3.54464 2.51974
head 5.46688 -1.80775 1.4708
rclavicle 4.25523e-016 -2.08724e-015
rhumerus 14.389 1.30265 -66.9549
rradius 80.2964
rwrist -16.4072
rhand -12.8528 -25.9039
rfingers 7.12502
rthumb 13.2351 -55.4637
lclavicle 4.25523e-016 -2.08724e-015
lhumerus 6.56501 -8.60486 84.1389
lradius 64.2469
lwrist 13.6489
lhand -16.8636 33.8374
lfingers 7.12502
lthumb 9.367 63.6093
rfemur -34.7709 -10.0845 19.1187
rtibia 41.3675
rfoot -7.05918 -18.8468
rtoes 5.4481
lfemur -5.1464 -7.60841 -20.1053
ltibia 16.0362
lfoot -12.7821 1.74948
ltoes -6.90829
9
root 32.6857 17.6356 6.57438 70.202 -88.7068 -64.1938
lowerback 0.0899345 0.215228 -0.0557648
upperback -1.97474 0.278724 0.331238
thorax -2.07504 0.137558 0.365554
lowerneck -12.3528 -3.13617 -5.9472
upperneck 10.9354 -3.51346 2.51767
head 5.47292 -1.78987 1.46029
rclavicle 7.20594e-016 7.95139e-016
rhumerus 14.2798 1.40896 -66.5997
rradius 80.4793
rwrist -16.1647
rhand -13.0809 -25.7854
rfingers 7.12502
rthumb 13.0153 -55.3594
lclavicle 7.20594e-016 7.95139e-016
lhumerus 6.20712 -8.57073 84.4548
lradius 64.5892
lwrist 13.5707
lhand -16.796 33.7946
lfingers 7.12502
lthumb 9.43215 63.5636
rfemur -34.889 -9.73079 18.8801
rtibia 38.7349
rfoot -6.17865 -18.598
rtoes 5.63278
lfemur -4.83764 -7.61937 -20.1942
ltibia 15.9268
lfoot -13.0709 1.82097
ltoes -6.88691
10
root 32.5762 17.6268 6.56668 68.8084 -88.766 -62.6415
lowerback 0.137773 0.173654 -0.104003
upperback -2.01803 0.222862 0.363129
thorax -2.14636 0.110719 0.426144
lowerneck -12.3646 -3.1149 -5.88449
upperneck 10.9658 -3.49841 2.53685
head 5.4829 -1.77876 1.45731
rclavicle 1.26259e-015 -1.14301e-015
rhumerus 14.1 1.55581 -66.2372
rradius 80.6149
rwrist -15.9149
rhand -13.2596 -25.699
rfingers 7.12502
rthumb 12.8429 -55.2839
lclavicle 1.26259e-015 -1.14301e-015
lhumerus 5.94354 -8.54988 84.7289
lradius 64.9857
lwrist 13.5905
lhand -16.746 33.5433
lfingers 7.12502
lthumb 9.4804 63.31
rfemur -34.9399 -9.28848 18.5911
rtibia 35.9951
rfoot -5.12439 -18.3145
rtoes 5.78037
lfemur -4.53165 -7.62415 -20.2869
ltibia 15.8117
lfoot -13.3617 1.87915
ltoes -6.84185
11
root 32.4655 17.6171 6.55779 66.9923 -88.8286 -60.6564
lowerback 0.0899178 0.137746 -0.152201
upperback -2.00541 0.174604 0.38225
thorax -2.10632 0.0875854 0.473831
lowerneck -12.3864 -3.10501 -5.81667
upperneck 10.9429 -3.49986 2.57101
head 5.47868 -1.77364 1.45687
rclavicle -1.55611e-015 2.28602e-015
rhumerus 13.9088 1.71709 -65.87
rradius 80.6779
rwrist -15.6482
rhand -13.425 -25.6223
rfingers 7.12502
rthumb 12.6835 -55.2172
lclavicle -1.55611e-015 2.28602e-015
lhumerus 5.83987 -8.5379 84.9502
lradius 65.4238
lwrist 13.6524
lhand -16.7098 33.108
lfingers 7.12502
lthumb 9.51533 62.8732
rfemur -34.9262 -8.7498 18.2502
rtibia 33.1666
rfoot -3.94643 -18.0125
rtoes 5.87907
lfemur -4.22863 -7.61538 -20.3762
ltibia 15.6908
lfoot -13.6581 1.90965
ltoes -6.75767
